<svg width="85" height="85" viewBox="0 0 85 85" fill="none" xmlns="http://www.w3.org/2000/svg">
<rect x="1" y="1" width="83" height="83" rx="19" stroke="#30E5F3" stroke-width="2"/>
<path d="M64.2748 36.9896C64.4104 36.1304 64.4783 35.2713 64.4783 34.3896C64.4783 27.5391 58.9391 22 52.0887 22C47.0017 22 42.6383 25.0522 40.7391 29.4383C38.84 25.0522 34.4765 22 29.3896 22C22.5391 22 17 27.5391 17 34.3896C17 50.8939 41.7791 63.2835 41.7791 63.2835C41.7791 63.2835 56.2713 55.3704 62.0817 43.7722" stroke="#FC69F8" stroke-width="2" stroke-linecap="round" stroke-linejoin="round"/>
<path d="M69 40.381H55.4348L48.6522 47.1636L44.1304 33.5984L37.3478 40.381" stroke="#FC69F8" stroke-width="2" stroke-linecap="round" stroke-linejoin="round"/>
</svg>
