<svg width="85" height="85" viewBox="0 0 85 85" fill="none" xmlns="http://www.w3.org/2000/svg">
<rect x="1" y="1" width="83" height="83" rx="19" stroke="#30E5F3" stroke-width="2"/>
<path d="M21.7695 52.6615V29.8191C21.7695 27.1565 23.7016 25 26.0869 25H58.4674C60.8528 25 62.7848 27.1565 62.7848 29.8191V52.6615" stroke="#FC69F8" stroke-width="2" stroke-linecap="round" stroke-linejoin="round"/>
<path d="M60.4783 59.3384H23.5217C19.9239 59.3384 17 56.4636 17 52.9263H30.5C31.5217 52.9263 32.5 53.311 33.2391 53.995C33.9783 54.6789 34.9565 55.0636 35.9783 55.0636H48.0217C49.0435 55.0636 50.0217 54.6789 50.7609 53.995C51.5 53.311 52.4783 52.9263 53.5 52.9263H67C67 56.4636 64.0761 59.3384 60.4783 59.3384Z" stroke="#FC69F8" stroke-width="2" stroke-linecap="round" stroke-linejoin="round"/>
</svg>
