<svg width="16" height="13" viewBox="0 0 16 13" fill="none" xmlns="http://www.w3.org/2000/svg">
<g clip-path="url(#clip0_636_56)">
<mask id="mask0_636_56" style="mask-type:luminance" maskUnits="userSpaceOnUse" x="0" y="0" width="16" height="13">
<path d="M15.512 0.332275H0.313477V12.5676H15.512V0.332275Z" fill="white"/>
</mask>
<g mask="url(#mask0_636_56)">
<path d="M5.33012 0.441451C4.38911 0.659939 3.67074 0.903397 2.78318 1.2998C2.63772 1.36534 2.61397 1.39344 2.40915 1.73365C1.42956 3.36294 0.794306 5.03905 0.506367 6.75886C0.357944 7.65467 0.331228 8.04483 0.334197 9.14975C0.337165 9.71471 0.349039 10.2578 0.363881 10.3514L0.387629 10.5199L0.773528 10.7978C1.73828 11.4875 2.74162 12.0182 3.79245 12.3958C4.00915 12.4738 4.2021 12.5301 4.21991 12.5238C4.29412 12.4926 5.03327 11.2535 5.03327 11.1599C5.03327 11.1473 4.95609 11.1068 4.86407 11.0693C4.62956 10.9726 3.86963 10.5762 3.81917 10.5231C3.76871 10.47 3.78058 10.4513 3.94087 10.3295L4.06852 10.2328L4.36537 10.367C5.93271 11.0693 7.7227 11.2971 9.38204 11.0038C10.145 10.8696 10.8396 10.648 11.6559 10.2796C11.7598 10.2328 11.7628 10.2328 11.8934 10.3421C11.9646 10.4013 12.024 10.4669 12.024 10.4856C12.024 10.5294 11.4036 10.8726 11.0741 11.01C10.9435 11.0662 10.8247 11.1224 10.8099 11.1348C10.7506 11.1911 11.5194 12.5332 11.6114 12.5363C11.6322 12.5363 11.8043 12.4801 11.9972 12.4083C13.0927 12.0119 14.0811 11.4907 15.0518 10.7978L15.4378 10.5199L15.4585 10.3514C15.4674 10.2578 15.4852 9.85511 15.4971 9.46183C15.5802 6.70892 14.9034 4.19943 13.4132 1.73053L13.1935 1.36846L12.7869 1.19055C12.0359 0.862822 11.0563 0.550695 10.3349 0.410239L10.0678 0.357178L10.0173 0.432088C9.98764 0.469543 9.89266 0.66306 9.80655 0.859702L9.64924 1.2124L9.50081 1.19367C9.42066 1.18431 9.22474 1.15934 9.07041 1.13749C8.70226 1.08755 7.15572 1.08755 6.76982 1.13749C6.60655 1.15622 6.40767 1.18118 6.32455 1.19367L6.17612 1.20928L5.98318 0.794151C5.75757 0.310359 5.79616 0.332208 5.33012 0.441451ZM5.93568 5.58839C6.32455 5.78815 6.60655 6.17831 6.71342 6.65898C6.77279 6.92117 6.75498 7.35501 6.67186 7.60784C6.33049 8.68152 5.21138 9.00614 4.4841 8.24457C4.00915 7.74514 3.89338 6.93677 4.2021 6.27195C4.3713 5.913 4.64737 5.65081 5.00062 5.52285C5.16388 5.46042 5.2381 5.45106 5.45776 5.46042C5.68336 5.47291 5.74867 5.48851 5.93568 5.58839ZM10.988 5.59151C11.4956 5.8537 11.8014 6.39991 11.8014 7.04289C11.8014 7.51108 11.6618 7.89808 11.3799 8.21337C10.608 9.08421 9.36132 8.62853 9.11194 7.38623C8.98132 6.73389 9.25143 6.00664 9.7531 5.66954C9.99652 5.50412 10.2014 5.44794 10.5042 5.46354C10.7327 5.4729 10.7951 5.48851 10.988 5.59151Z" fill="white"/>
</g>
</g>
<defs>
<clipPath id="clip0_636_56">
<rect width="16" height="13" fill="white"/>
</clipPath>
</defs>
</svg>
