<svg width="17" height="17" viewBox="0 0 17 17" fill="none" xmlns="http://www.w3.org/2000/svg">
<g clip-path="url(#clip0_636_2)">
<mask id="mask0_636_2" style="mask-type:luminance" maskUnits="userSpaceOnUse" x="0" y="0" width="17" height="17">
<path d="M16.4316 0.43457H0.431641V16.4346H16.4316V0.43457Z" fill="white"/>
</mask>
<g mask="url(#mask0_636_2)">
<path d="M8.43164 0.43457C4.0134 0.43457 0.431641 4.01633 0.431641 8.43457C0.431641 12.1863 3.01468 15.3344 6.49916 16.1991V10.8794H4.84956V8.43457H6.49916V7.38113C6.49916 4.65825 7.73149 3.39617 10.4047 3.39617C10.9116 3.39617 11.7862 3.49569 12.1439 3.59489V5.81089C11.9551 5.79105 11.6271 5.78113 11.2198 5.78113C9.90812 5.78113 9.40125 6.27809 9.40125 7.56993V8.43457H12.0143L11.5654 10.8794H9.40125V16.376C13.3625 15.8976 16.4319 12.5248 16.4319 8.43457C16.4316 4.01633 12.8498 0.43457 8.43164 0.43457Z" fill="white"/>
</g>
</g>
<defs>
<clipPath id="clip0_636_2">
<rect width="17" height="17" fill="white"/>
</clipPath>
</defs>
</svg>
