<svg width="17" height="17" viewBox="0 0 17 17" fill="none" xmlns="http://www.w3.org/2000/svg">
<g clip-path="url(#clip0_636_12)">
<mask id="mask0_636_12" style="mask-type:luminance" maskUnits="userSpaceOnUse" x="0" y="0" width="17" height="17">
<path d="M16.4316 0.43457H0.431641V16.4346H16.4316V0.43457Z" fill="white"/>
</mask>
<g mask="url(#mask0_636_12)">
<path d="M8.43164 1.8752C10.5691 1.8752 10.8222 1.88457 11.6628 1.92207C12.4441 1.95645 12.866 2.0877 13.1472 2.19707C13.5191 2.34082 13.7878 2.51582 14.066 2.79395C14.3472 3.0752 14.5191 3.34082 14.6628 3.7127C14.7722 3.99395 14.9035 4.41895 14.9378 5.19707C14.9753 6.04082 14.9847 6.29395 14.9847 8.42832C14.9847 10.5658 14.9753 10.8189 14.9378 11.6596C14.9035 12.4408 14.7722 12.8627 14.6628 13.1439C14.5191 13.5158 14.3441 13.7846 14.066 14.0627C13.7847 14.3439 13.5191 14.5158 13.1472 14.6596C12.866 14.7689 12.441 14.9002 11.6628 14.9346C10.8191 14.9721 10.566 14.9814 8.43164 14.9814C6.29414 14.9814 6.04101 14.9721 5.20039 14.9346C4.41914 14.9002 3.99726 14.7689 3.71601 14.6596C3.34414 14.5158 3.07539 14.3408 2.79726 14.0627C2.51601 13.7814 2.34414 13.5158 2.20039 13.1439C2.09101 12.8627 1.95976 12.4377 1.92539 11.6596C1.88789 10.8158 1.87851 10.5627 1.87851 8.42832C1.87851 6.29082 1.88789 6.0377 1.92539 5.19707C1.95976 4.41582 2.09101 3.99395 2.20039 3.7127C2.34414 3.34082 2.51914 3.07207 2.79726 2.79395C3.07851 2.5127 3.34414 2.34082 3.71601 2.19707C3.99726 2.0877 4.42226 1.95645 5.20039 1.92207C6.04101 1.88457 6.29414 1.8752 8.43164 1.8752ZM8.43164 0.43457C6.25976 0.43457 5.98789 0.443945 5.13476 0.481445C4.28476 0.518945 3.70039 0.656445 3.19414 0.85332C2.66601 1.05957 2.21914 1.33145 1.77539 1.77832C1.32851 2.22207 1.05664 2.66895 0.850392 3.19395C0.653516 3.70332 0.516016 4.28457 0.478516 5.13457C0.441016 5.99082 0.431641 6.2627 0.431641 8.43457C0.431641 10.6064 0.441016 10.8783 0.478516 11.7314C0.516016 12.5814 0.653516 13.1658 0.850392 13.6721C1.05664 14.2002 1.32851 14.6471 1.77539 15.0908C2.21914 15.5346 2.66601 15.8096 3.19101 16.0127C3.70039 16.2096 4.28164 16.3471 5.13164 16.3846C5.98476 16.4221 6.25664 16.4314 8.42851 16.4314C10.6003 16.4314 10.8722 16.4221 11.7253 16.3846C12.5753 16.3471 13.1597 16.2096 13.666 16.0127C14.191 15.8096 14.6378 15.5346 15.0816 15.0908C15.5253 14.6471 15.8003 14.2002 16.0035 13.6752C16.2003 13.1658 16.3378 12.5846 16.3753 11.7346C16.4128 10.8814 16.4222 10.6096 16.4222 8.4377C16.4222 6.26582 16.4128 5.99395 16.3753 5.14082C16.3378 4.29082 16.2003 3.70645 16.0035 3.2002C15.8066 2.66895 15.5347 2.22207 15.0878 1.77832C14.6441 1.33457 14.1972 1.05957 13.6722 0.856445C13.1628 0.65957 12.5816 0.52207 11.7316 0.48457C10.8753 0.443945 10.6035 0.43457 8.43164 0.43457Z" fill="white"/>
<path d="M8.43165 4.3252C6.1629 4.3252 4.32227 6.16582 4.32227 8.43457C4.32227 10.7033 6.1629 12.5439 8.43165 12.5439C10.7003 12.5439 12.541 10.7033 12.541 8.43457C12.541 6.16582 10.7003 4.3252 8.43165 4.3252ZM8.43165 11.1002C6.95977 11.1002 5.76602 9.90645 5.76602 8.43457C5.76602 6.9627 6.95977 5.76895 8.43165 5.76895C9.90352 5.76895 11.0972 6.9627 11.0972 8.43457C11.0972 9.90645 9.90352 11.1002 8.43165 11.1002Z" fill="white"/>
<path d="M13.6628 4.1625C13.6628 4.69375 13.2316 5.12189 12.7035 5.12189C12.1722 5.12189 11.7441 4.69063 11.7441 4.1625C11.7441 3.63125 12.1753 3.20312 12.7035 3.20312C13.2316 3.20312 13.6628 3.63438 13.6628 4.1625Z" fill="white"/>
</g>
</g>
<defs>
<clipPath id="clip0_636_12">
<rect width="17" height="17" fill="white"/>
</clipPath>
</defs>
</svg>
