<svg width="16" height="16" viewBox="0 0 16 16" fill="none" xmlns="http://www.w3.org/2000/svg">
<g clip-path="url(#clip0_636_28)">
<mask id="mask0_636_28" style="mask-type:luminance" maskUnits="userSpaceOnUse" x="0" y="0" width="16" height="16">
<path d="M16 0H0V16H16V0Z" fill="white"/>
</mask>
<g mask="url(#mask0_636_28)">
<path d="M14.8156 0H1.18125C0.528123 0 0 0.515627 0 1.15313V14.8437C0 15.4812 0.528123 16 1.18125 16H14.8156C15.4687 16 16 15.4813 16 14.8469V1.15313C16 0.515627 15.4687 0 14.8156 0ZM4.74687 13.6344H2.37188V5.99687H4.74687V13.6344ZM3.55937 4.95627C2.79687 4.95627 2.18125 4.34063 2.18125 3.58123C2.18125 2.82187 2.79687 2.20625 3.55937 2.20625C4.31877 2.20625 4.93437 2.82187 4.93437 3.58123C4.93437 4.3375 4.31877 4.95627 3.55937 4.95627ZM13.6344 13.6344H11.2625V9.92187C11.2625 9.0375 11.2469 7.89687 10.0281 7.89687C8.79373 7.89687 8.60623 8.8625 8.60623 9.85937V13.6344H6.2375V5.99687H8.5125V7.04063H8.54373C8.85937 6.44063 9.63437 5.80627 10.7875 5.80627C13.1906 5.80627 13.6344 7.3875 13.6344 9.44377V13.6344Z" fill="white"/>
</g>
</g>
<defs>
<clipPath id="clip0_636_28">
<rect width="16" height="16" fill="white"/>
</clipPath>
</defs>
</svg>
