<svg width="17" height="15" viewBox="0 0 17 15" fill="none" xmlns="http://www.w3.org/2000/svg">
<g clip-path="url(#clip0_636_63)">
<path d="M7.85309 0.459283C7.56543 0.615304 7.5079 0.778417 7.5079 1.37414C7.5079 1.67199 7.48633 1.91311 7.45037 1.91311C7.4216 1.91311 6.98293 1.79965 6.47234 1.6649C5.96175 1.52306 5.53026 1.42378 5.51588 1.44505C5.5015 1.45924 5.61656 1.72873 5.77478 2.04787C6.79595 4.04777 7.2562 5.95548 6.99731 7.17529C6.90383 7.63626 6.35008 8.79223 5.89702 9.49431C5.71005 9.77798 5.57342 10.0546 5.59499 10.1113C5.62375 10.1893 5.83949 10.2106 6.57302 10.2106H7.5079V11.629H6.41481C5.45116 11.629 5.28576 11.6148 5.00529 11.48C4.60257 11.2886 4.33649 10.8844 4.28615 10.4233L4.2502 10.0688H0.294922L0.33807 10.622C0.38841 11.2248 0.604152 11.9056 0.927764 12.4516C1.24419 12.9836 2.00648 13.6857 2.58898 13.9906C3.59578 14.5083 3.55982 14.5012 7.90343 14.5012C11.7437 14.5012 11.7939 14.5012 12.1248 14.3451C12.621 14.1253 13.1387 13.6076 13.6494 12.8346C13.9011 12.4658 14.2534 11.9339 14.4404 11.6502C14.7065 11.2531 14.8862 11.0687 15.2747 10.8134C15.5407 10.6362 15.8643 10.4588 15.9866 10.4163C16.2095 10.3383 16.2095 10.3383 16.2095 9.80639C16.2095 9.33831 16.1952 9.28157 16.0873 9.31704C16.0153 9.33831 15.1021 9.59357 14.0521 9.89145L12.1464 10.4375L11.6429 10.9198C10.9813 11.5652 10.8088 11.629 9.77319 11.629H8.94618V10.2106H9.47837C10.0897 10.2106 10.2119 10.1397 10.9167 9.35957C11.456 8.76387 11.7077 8.40218 11.9881 7.81356C12.1895 7.40222 12.2182 7.26748 12.2111 6.77105C12.2039 6.08314 12.0456 5.63635 11.5207 4.84206C11.1468 4.26762 9.60775 2.69322 9.17631 2.445L8.94618 2.31026V1.68618C8.94618 1.04791 8.8527 0.679131 8.63695 0.508926C8.46436 0.367089 8.06883 0.338721 7.85309 0.459283Z" fill="white"/>
<path d="M4.45835 3.48743C4.3289 3.69309 3.55223 4.89162 2.73241 6.15397C1.91977 7.41632 1.25098 8.4801 1.25098 8.51556C1.25098 8.55103 1.99169 8.57939 3.07759 8.57939H4.90421L5.27817 7.83474C5.71684 6.97663 5.79594 6.45183 5.63774 5.57244C5.48671 4.7356 4.91141 3.11865 4.76758 3.11865C4.73162 3.11865 4.59498 3.28886 4.45835 3.48743Z" fill="white"/>
</g>
<defs>
<clipPath id="clip0_636_63">
<rect width="17" height="15" fill="white"/>
</clipPath>
</defs>
</svg>
