<svg width="31" height="33" viewBox="0 0 31 33" fill="none" xmlns="http://www.w3.org/2000/svg">
<g id="Group 26884">
<path id="Vector" d="M25.255 23.6216H20.3675C19.2085 23.6216 18.2728 24.5572 18.2728 25.7162C18.2728 26.8753 19.2085 27.8109 20.3675 27.8109H27.3496C28.5087 27.8109 29.4443 28.7465 29.4443 29.9055C29.4443 31.0646 28.5087 32.0002 27.3496 32.0002H2.91211" stroke="white" stroke-width="2" stroke-linecap="round" stroke-linejoin="round"/>
<path id="Subtract" fill-rule="evenodd" clip-rule="evenodd" d="M2.09308 18.1349L8.39796 24.4398L23.0426 9.79518L16.7377 3.49029L2.09308 18.1349ZM18.1519 2.07608L24.4568 8.38097L25.2265 7.61124C26.9651 5.87269 26.9651 3.04491 25.2265 1.30636C23.488 -0.432198 20.6602 -0.432198 18.9216 1.30636L18.1519 2.07608ZM1.27804 20.1483L6.38457 25.2548L0 26.5329L1.27804 20.1483Z" fill="white"/>
</g>
</svg>
