<svg width="18" height="18" viewBox="0 0 18 18" fill="none" xmlns="http://www.w3.org/2000/svg">
<g clip-path="url(#clip0_636_74)">
<mask id="mask0_636_74" style="mask-type:luminance" maskUnits="userSpaceOnUse" x="0" y="0" width="18" height="18">
<path d="M18 0H0V18H18V0Z" fill="white"/>
</mask>
<g mask="url(#mask0_636_74)">
<path d="M9 0C4.02893 0 0 4.02893 0 9C0 12.8145 2.37305 16.0699 5.71991 17.3812C5.64259 16.6676 5.56875 15.5777 5.75156 14.8008C5.91679 14.0977 6.80625 10.3289 6.80625 10.3289C6.80625 10.3289 6.53554 9.79103 6.53554 8.99299C6.53554 7.74143 7.25977 6.80625 8.16326 6.80625C8.92969 6.80625 9.30236 7.38281 9.30236 8.0754C9.30236 8.84884 8.81014 10.002 8.55701 11.0707C8.34608 11.9672 9.00701 12.6984 9.88946 12.6984C11.4891 12.6984 12.7195 11.0109 12.7195 8.57812C12.7195 6.42304 11.1726 4.91486 8.96134 4.91486C6.40196 4.91486 4.89727 6.83438 4.89727 8.82071C4.89727 9.59415 5.19608 10.4238 5.56875 10.8738C5.64259 10.9617 5.65312 11.0426 5.63201 11.1305C5.56522 11.4152 5.41054 12.027 5.38241 12.15C5.34375 12.3152 5.25236 12.3504 5.08009 12.2695C3.95509 11.7457 3.25195 10.1039 3.25195 8.78205C3.25195 5.94143 5.31562 3.33633 9.19687 3.33633C12.3187 3.33633 14.7445 5.56174 14.7445 8.53594C14.7445 11.6367 12.7899 14.1328 10.0758 14.1328C9.16522 14.1328 8.30741 13.6582 8.0121 13.0992C8.0121 13.0992 7.5621 14.8183 7.45312 15.2402C7.2492 16.0207 6.70076 17.0016 6.33514 17.5992C7.17889 17.8594 8.07188 18 9 18C13.9711 18 18 13.9711 18 9C18 4.02893 13.9711 0 9 0Z" fill="white"/>
</g>
</g>
<defs>
<clipPath id="clip0_636_74">
<rect width="18" height="18" fill="white"/>
</clipPath>
</defs>
</svg>
