<svg width="18" height="17" viewBox="0 0 18 17" fill="none" xmlns="http://www.w3.org/2000/svg">
<path d="M16.5469 1.5423C16.3286 1.588 16.1345 1.64969 15.6469 1.83477C15.414 1.9216 14.9943 2.07926 14.7129 2.18208C13.614 2.5888 9.18436 4.32993 7.48382 5.02227C3.02991 6.83652 1.10376 7.62711 0.73988 7.79391C0.174651 8.05211 -0.0800659 8.4177 0.0921713 8.71931C0.135837 8.797 0.327481 8.95009 0.465756 9.01636C0.778694 9.16716 1.38274 9.33853 2.60781 9.62872C3.00807 9.72469 3.4884 9.84351 3.67519 9.89378C4.22344 10.04 4.47573 10.056 4.90026 9.97375C5.52128 9.85036 6.10107 9.54646 7.50807 8.6005C7.78948 8.41085 8.32802 8.06125 8.70888 7.82133C9.08975 7.58141 9.75444 7.15184 10.1887 6.86622C11.1493 6.23329 12.879 5.14566 13.0342 5.07711C13.0997 5.0474 13.1943 5.02684 13.2598 5.02684C13.3544 5.02684 13.3835 5.03826 13.4539 5.10453C13.5558 5.2005 13.5655 5.31474 13.4806 5.4427C13.3933 5.5798 12.9687 6.01165 12.6024 6.33611C12.4132 6.50292 11.6127 7.21353 10.8194 7.91958C10.0261 8.62335 9.14797 9.39566 8.86657 9.63558C8.21158 10.1931 8.03206 10.3759 7.91562 10.5975C7.82586 10.7643 7.82344 10.7803 7.82344 11.0111C7.82344 11.2396 7.82829 11.2625 7.90107 11.3927C7.94473 11.4704 8.03206 11.5846 8.09756 11.6486C8.17519 11.724 8.90053 12.1901 10.2396 13.0287C11.3531 13.7256 12.4544 14.4225 12.6873 14.5825C13.3738 15.0463 13.7717 15.2588 14.2229 15.4074C14.4315 15.4736 14.4679 15.4805 14.7736 15.4805H15.1035L15.2879 15.3936C15.6251 15.2383 15.8919 14.9001 16.0569 14.4271C16.1733 14.0912 16.2558 13.6548 16.3844 12.7157C16.4329 12.3752 16.6003 11.3173 16.7604 10.3622C17.6216 5.21649 17.9539 3.05722 17.9539 2.57052C17.9515 2.08383 17.818 1.79364 17.5124 1.6177C17.328 1.51031 16.8817 1.47603 16.5469 1.5423Z" fill="white"/>
</svg>
