<svg width="17" height="17" viewBox="0 0 17 17" fill="none" xmlns="http://www.w3.org/2000/svg">
<mask id="mask0_636_42" style="mask-type:luminance" maskUnits="userSpaceOnUse" x="0" y="0" width="17" height="17">
<path d="M16.4316 0.43457H0.431641V16.4346H16.4316V0.43457Z" fill="white"/>
</mask>
<g mask="url(#mask0_636_42)">
<path d="M16.2722 5.23477C16.2722 5.23477 16.116 4.13164 15.6347 3.64727C15.0253 3.00977 14.3441 3.00664 14.0316 2.96914C11.7941 2.80664 8.43476 2.80664 8.43476 2.80664H8.42851C8.42851 2.80664 5.06914 2.80664 2.83164 2.96914C2.51914 3.00664 1.83789 3.00977 1.22851 3.64727C0.747267 4.13164 0.594141 5.23477 0.594141 5.23477C0.594141 5.23477 0.431641 6.53164 0.431641 7.82539V9.03789C0.431641 10.3316 0.591016 11.6285 0.591016 11.6285C0.591016 11.6285 0.747266 12.7316 1.22539 13.216C1.83476 13.8535 2.63476 13.8316 2.99101 13.9004C4.27226 14.0223 8.43164 14.0598 8.43164 14.0598C8.43164 14.0598 11.7941 14.0535 14.0316 13.8941C14.3441 13.8566 15.0253 13.8535 15.6347 13.216C16.116 12.7316 16.2722 11.6285 16.2722 11.6285C16.2722 11.6285 16.4316 10.3348 16.4316 9.03789V7.82539C16.4316 6.53164 16.2722 5.23477 16.2722 5.23477ZM6.77851 10.5098V6.01289L11.1003 8.26914L6.77851 10.5098Z" fill="white"/>
</g>
</svg>
